HIERARCHY
ROOT hip
{
  OFFSET 0.0248809 96.4281 0.301297
  CHANNELS 6 Xposition Yposition Zposition Zrotation Xrotation Yrotation
  JOINT abdomen
  {
    OFFSET 0 7.2397 0
    CHANNELS 6 Xposition Yposition Zposition Zrotation Xrotation Yrotation
    JOINT chest
    {
      OFFSET 0 16.546 0
      CHANNELS 6 Xposition Yposition Zposition Zrotation Xrotation Yrotation
      JOINT neck
      {
        OFFSET 0 34.2149 0
        CHANNELS 6 Xposition Yposition Zposition Zrotation Xrotation Yrotation
        JOINT head
        {
          OFFSET 0 6.2923 0
          CHANNELS 6 Xposition Yposition Zposition Zrotation Xrotation Yrotation
          End Site
          {
            OFFSET 0 21.2161 0
          }
        }
      }
      JOINT lCollar
      {
        OFFSET 4.0639 26.6115 -1.1234
        CHANNELS 6 Xposition Yposition Zposition Zrotation Xrotation Yrotation
        JOINT lShldr
        {
          OFFSET 14.1772 0 0
          CHANNELS 6 Xposition Yposition Zposition Zrotation Xrotation Yrotation
          JOINT lForeArm
          {
            OFFSET 26.1234 0 0
            CHANNELS 6 Xposition Yposition Zposition Zrotation Xrotation Yrotation
            JOINT lHand
            {
              OFFSET 27.7188 0 0
              CHANNELS 6 Xposition Yposition Zposition Zrotation Xrotation Yrotation
              JOINT lThumb1
              {
                OFFSET 2.2979 -0.4685 1.8313
                CHANNELS 6 Xposition Yposition Zposition Zrotation Xrotation Yrotation
                JOINT lThumb2
                {
                  OFFSET 5.2953 0 0
                  CHANNELS 6 Xposition Yposition Zposition Zrotation Xrotation Yrotation
                  JOINT lThumb3
                  {
                    OFFSET 3.0181 0 0
                    CHANNELS 6 Xposition Yposition Zposition Zrotation Xrotation Yrotation
                    End Site
                    {
                      OFFSET 2.6294 0 0
                    }
                  }
                }
              }
              JOINT lIndex1
              {
                OFFSET 9.3793 0.2991 2.5924
                CHANNELS 6 Xposition Yposition Zposition Zrotation Xrotation Yrotation
                JOINT lIndex2
                {
                  OFFSET 4.3461 0 0
                  CHANNELS 6 Xposition Yposition Zposition Zrotation Xrotation Yrotation
                  JOINT lIndex3
                  {
                    OFFSET 2.1666 0 0
                    CHANNELS 6 Xposition Yposition Zposition Zrotation Xrotation Yrotation
                    End Site
                    {
                      OFFSET 2.2048 0 0
                    }
                  }
                }
              }
              JOINT lMid1
              {
                OFFSET 9.4769 0.8376 0.2947
                CHANNELS 6 Xposition Yposition Zposition Zrotation Xrotation Yrotation
                JOINT lMid2
                {
                  OFFSET 4.772 0 0
                  CHANNELS 6 Xposition Yposition Zposition Zrotation Xrotation Yrotation
                  JOINT lMid3
                  {
                    OFFSET 2.8722 0 0
                    CHANNELS 6 Xposition Yposition Zposition Zrotation Xrotation Yrotation
                    End Site
                    {
                      OFFSET 2.0959 0 0
                    }
                  }
                }
              }
              JOINT lRing1
              {
                OFFSET 8.6586 1.0176 -1.7016
                CHANNELS 6 Xposition Yposition Zposition Zrotation Xrotation Yrotation
                JOINT lRing2
                {
                  OFFSET 4.5461 0 0
                  CHANNELS 6 Xposition Yposition Zposition Zrotation Xrotation Yrotation
                  JOINT lRing3
                  {
                    OFFSET 2.506 0 0
                    CHANNELS 6 Xposition Yposition Zposition Zrotation Xrotation Yrotation
                    End Site
                    {
                      OFFSET 2.2023 0 0
                    }
                  }
                }
              }
              JOINT lPinky1
              {
                OFFSET 7.6901 0.6618 -3.9096
                CHANNELS 6 Xposition Yposition Zposition Zrotation Xrotation Yrotation
                JOINT lPinky2
                {
                  OFFSET 3.2119 0 0
                  CHANNELS 6 Xposition Yposition Zposition Zrotation Xrotation Yrotation
                  JOINT lPinky3
                  {
                    OFFSET 1.924 0 0
                    CHANNELS 6 Xposition Yposition Zposition Zrotation Xrotation Yrotation
                    End Site
                    {
                      OFFSET 1.7829 0 0
                    }
                  }
                }
              }
            }
          }
        }
      }
      JOINT rCollar
      {
        OFFSET -4.0677 26.6109 -1.1234
        CHANNELS 6 Xposition Yposition Zposition Zrotation Xrotation Yrotation
        JOINT rShldr
        {
          OFFSET -14.1772 0 0
          CHANNELS 6 Xposition Yposition Zposition Zrotation Xrotation Yrotation
          JOINT rForeArm
          {
            OFFSET -26.1234 0 0
            CHANNELS 6 Xposition Yposition Zposition Zrotation Xrotation Yrotation
            JOINT rHand
            {
              OFFSET -27.7188 0 0
              CHANNELS 6 Xposition Yposition Zposition Zrotation Xrotation Yrotation
              JOINT rThumb1
              {
                OFFSET -2.2979 -0.4684 1.8313
                CHANNELS 6 Xposition Yposition Zposition Zrotation Xrotation Yrotation
                JOINT rThumb2
                {
                  OFFSET -5.2953 0 0
                  CHANNELS 6 Xposition Yposition Zposition Zrotation Xrotation Yrotation
                  JOINT rThumb3
                  {
                    OFFSET -3.0181 0 0
                    CHANNELS 6 Xposition Yposition Zposition Zrotation Xrotation Yrotation
                    End Site
                    {
                      OFFSET -2.6294 0 0
                    }
                  }
                }
              }
              JOINT rIndex1
              {
                OFFSET -9.3793 0.2991 2.5924
                CHANNELS 6 Xposition Yposition Zposition Zrotation Xrotation Yrotation
                JOINT rIndex2
                {
                  OFFSET -4.3461 0 0
                  CHANNELS 6 Xposition Yposition Zposition Zrotation Xrotation Yrotation
                  JOINT rIndex3
                  {
                    OFFSET -2.1666 0 0
                    CHANNELS 6 Xposition Yposition Zposition Zrotation Xrotation Yrotation
                    End Site
                    {
                      OFFSET -2.2048 0 0
                    }
                  }
                }
              }
              JOINT rMid1
              {
                OFFSET -9.4769 0.8376 0.2947
                CHANNELS 6 Xposition Yposition Zposition Zrotation Xrotation Yrotation
                JOINT rMid2
                {
                  OFFSET -4.772 0 0
                  CHANNELS 6 Xposition Yposition Zposition Zrotation Xrotation Yrotation
                  JOINT rMid3
                  {
                    OFFSET -2.8722 0 0
                    CHANNELS 6 Xposition Yposition Zposition Zrotation Xrotation Yrotation
                    End Site
                    {
                      OFFSET -2.0959 0 0
                    }
                  }
                }
              }
              JOINT rRing1
              {
                OFFSET -8.6586 1.0176 -1.7016
                CHANNELS 6 Xposition Yposition Zposition Zrotation Xrotation Yrotation
                JOINT rRing2
                {
                  OFFSET -4.5461 0 0
                  CHANNELS 6 Xposition Yposition Zposition Zrotation Xrotation Yrotation
                  JOINT rRing3
                  {
                    OFFSET -2.506 0 0
                    CHANNELS 6 Xposition Yposition Zposition Zrotation Xrotation Yrotation
                    End Site
                    {
                      OFFSET -2.2023 0 0
                    }
                  }
                }
              }
              JOINT rPinky1
              {
                OFFSET -7.6901 0.6618 -3.9096
                CHANNELS 6 Xposition Yposition Zposition Zrotation Xrotation Yrotation
                JOINT rPinky2
                {
                  OFFSET -3.2119 0 0
                  CHANNELS 6 Xposition Yposition Zposition Zrotation Xrotation Yrotation
                  JOINT rPinky3
                  {
                    OFFSET -1.924 0 0
                    CHANNELS 6 Xposition Yposition Zposition Zrotation Xrotation Yrotation
                    End Site
                    {
                      OFFSET -1.7829 0 0
                    }
                  }
                }
              }
            }
          }
        }
      }
    }
  }
  JOINT lThigh
  {
    OFFSET 8.7379 -0.0029 0.0005
    CHANNELS 6 Xposition Yposition Zposition Zrotation Xrotation Yrotation
    JOINT lShin
    {
      OFFSET 0 -46.6676 0
      CHANNELS 6 Xposition Yposition Zposition Zrotation Xrotation Yrotation
      JOINT lFoot
      {
        OFFSET 0 -40.1476 0
        CHANNELS 6 Xposition Yposition Zposition Zrotation Xrotation Yrotation
        JOINT lToes
        {
          OFFSET 0 -8.8846 14.2294
          CHANNELS 6 Xposition Yposition Zposition Zrotation Xrotation Yrotation
          End Site
          {
            OFFSET 0 0 6.296
          }
        }
      }
    }
  }
  JOINT rThigh
  {
    OFFSET -8.7379 0.0029 -0.0005
    CHANNELS 6 Xposition Yposition Zposition Zrotation Xrotation Yrotation
    JOINT rShin
    {
      OFFSET 0 -46.6676 0
      CHANNELS 6 Xposition Yposition Zposition Zrotation Xrotation Yrotation
      JOINT rFoot
      {
        OFFSET 0 -40.1476 0
        CHANNELS 6 Xposition Yposition Zposition Zrotation Xrotation Yrotation
        JOINT rToes
        {
          OFFSET 0 -8.8846 14.2294
          CHANNELS 6 Xposition Yposition Zposition Zrotation Xrotation Yrotation
          End Site
          {
            OFFSET 0 0 6.296
          }
        }
      }
    }
  }
}
MOTION
Frames:	4
Frame Time:	0.0333333
0.0248809 96.4281 0.301297 1.5099 -5.16978 1.69784 -4.44089e-16 7.2397 1.77636e-15 -1.24773 1.23749 -1.39158 0 16.546 -8.88178e-16 -2.24629 4.36052 -2.62401 8.88178e-16 34.2149 0 2.75339 25.8436 1.5312 0 6.2923 -1.42109e-14 -0.959945 -18.6167 -2.01097 4.0639 26.6115 -1.1234 2.92537 -4.30817 0.963469 14.1772 0 8.88178e-16 -83.2981 22.267 12.3676 26.1234 -7.10543e-15 0 -0.521003 -1.41213 -18.8759 27.7188 7.10543e-15 4.44089e-16 -1.74523 -27.5175 6.91455 2.2979 -0.4685 1.8313 82.8946 74.8847 -95.8341 5.2953 0 0 -13.6569 2.4471 4.23251 3.0181 0 3.55271e-15 38.9667 3.92336 4.92079 9.3793 0.2991 2.5924 -7.7452 -1.73213 2.94702 4.3461 3.55271e-15 0 -9.95205 0.097265 2.05905 2.1666 3.55271e-15 0 -12.1192 -0.251091 2.0032 9.4769 0.8376 0.2947 -7.1513 -4.47891 3.17469 4.772 0 -4.44089e-16 -31.6887 -2.13649 7.83422 2.8722 0 -1.77636e-15 -19.9275 -0.77975 6.4594 8.6586 1.0176 -1.7016 -15.3319 1.72811 4.47822 4.5461 -1.77636e-15 0 -36.0019 -1.51088 4.64715 2.506 0 0 -23.0802 -0.577588 4.02645 7.6901 0.6618 -3.9096 -12.9475 -9.45042 4.32826 3.2119 -1.77636e-15 0 -35.3326 -3.70582 11.5997 1.924 7.10543e-15 0 -25.0287 -1.82101 9.98808 -4.0677 26.6109 -1.1234 5.30818 -4.21458 1.7225 -14.1772 2.84217e-14 1.77636e-15 74.4945 3.69194 -12.1235 -26.1234 0 0 0.31005 -0.99407 13.0257 -27.7188 0 -1.77636e-15 -11.6836 -9.49692 3.64292 -2.2979 -0.4684 1.8313 -84.581 74.4253 115.749 -5.2953 -7.10543e-15 -3.55271e-15 15.3004 2.21205 -5.46139 -3.0181 1.77636e-15 -3.55271e-15 -10.6114 3.2941 -16.0189 -9.3793 0.2991 2.5924 58.8722 -7.07581 -8.64881 -4.3461 0 -4.44089e-16 78.8288 -8.3887 -10.5305 -2.1666 0 0 81.0281 -8.82224 -9.93211 -9.4769 0.8376 0.2947 58.4456 -9.84026 -8.71158 -4.772 3.55271e-15 0 77.7398 -10.7396 -13.4126 -2.8722 -1.42109e-14 0 73.8658 -9.75406 -14.4177 -8.6586 1.0176 -1.7016 59.4604 -3.212 -8.59604 -4.5461 7.10543e-15 -8.88178e-16 79.8423 -5.51923 -6.59367 -2.506 0 0 73.1039 -4.70674 -7.195 -7.6901 0.6618 -3.9096 57.7239 -14.4056 -8.86325 -3.2119 0 -8.88178e-16 75.4266 -14.2018 -18.3035 -1.924 0 0 71.1307 -12.7786 -19.3061 8.7379 -0.0029 0.0005 -0.667605 -1.13169 14.2369 0 -46.6676 -1.77636e-15 1.75633 15.9198 -2.70147 -1.77636e-15 -40.1476 -4.44089e-16 0.254634 -9.55591 7.91518 -1.77636e-15 -8.8846 14.2294 0.0001 0 -0 -8.7379 0.0029 -0.0005 -7.63597 -3.15854 -24.0699 -1.77636e-15 -46.6676 0 -3.26392 17.6718 6.89122 -1.77636e-15 -40.1476 2.66454e-15 3.9642 -7.93398 -7.85076 0 -8.8846 14.2294 -6.21202e-17 4.96962e-17 -6.36111e-15 
0.0166039 96.431 0.322116 1.37971 -5.14152 1.70256 0 7.2397 0 -1.19485 1.23212 -1.39364 0 16.546 -8.88178e-16 -2.18385 4.34909 -2.62884 -8.88178e-16 34.2149 0 2.75339 25.8436 1.53121 0 6.2923 1.42109e-14 -0.962398 -18.6163 -2.02776 4.0639 26.6115 -1.1234 2.94786 -4.35631 0.941802 14.1772 0 0 -83.3592 22.2605 12.3384 26.1234 0 7.10543e-15 -0.511753 -1.39592 -18.6429 27.7188 0 -2.22045e-16 -1.82878 -27.459 6.67802 2.2979 -0.4685 1.8313 82.892 74.893 -95.8278 5.2953 -7.10543e-15 0 -13.6654 2.44468 4.23599 3.0181 0 3.55271e-15 38.9561 3.92405 4.92503 9.3793 0.2991 2.5924 -7.75495 -1.73263 2.94875 4.3461 0 0 -9.96175 0.0969142 2.06104 2.1666 -2.66454e-15 4.44089e-16 -12.1289 -0.251505 2.00513 9.4769 0.8376 0.2947 -7.16093 -4.47939 3.17643 4.772 3.55271e-15 8.88178e-16 -31.6982 -2.1378 7.83634 2.8722 3.55271e-15 1.77636e-15 -19.9371 -0.780596 6.46173 8.6586 1.0176 -1.7016 -15.3418 1.72739 4.47987 4.5461 1.77636e-15 0 -36.0117 -1.51167 4.64824 2.506 1.42109e-14 0 -23.09 -0.578119 4.0277 7.6901 0.6618 -3.9096 -12.957 -9.45107 4.32996 3.2119 0 8.88178e-16 -35.3418 -3.7077 11.6024 1.924 7.10543e-15 0 -25.038 -1.82239 9.99103 -4.0677 26.6109 -1.1234 5.26665 -4.27286 1.73935 -14.1772 0 0 74.548 3.70898 -12.1258 -26.1234 0 3.55271e-15 0.311206 -0.996536 13.0595 -27.7188 0 1.77636e-15 -11.639 -9.60021 3.59827 -2.2979 -0.4684 1.8313 -84.581 74.4253 115.749 -5.2953 7.10543e-15 -3.55271e-15 15.3004 2.21205 -5.46139 -3.0181 -3.55271e-15 0 -10.6114 3.2941 -16.0189 -9.3793 0.2991 2.5924 58.8722 -7.07581 -8.64881 -4.3461 -1.06581e-14 4.44089e-16 78.8288 -8.3887 -10.5305 -2.1666 -1.42109e-14 -8.88178e-16 81.0281 -8.82224 -9.93211 -9.4769 0.8376 0.2947 58.4456 -9.84026 -8.71158 -4.772 -7.10543e-15 0 77.7398 -10.7396 -13.4126 -2.8722 0 0 73.8658 -9.75406 -14.4177 -8.6586 1.0176 -1.7016 59.4604 -3.212 -8.59604 -4.5461 -3.55271e-15 8.88178e-16 79.8423 -5.51923 -6.59367 -2.506 0 1.77636e-15 73.1039 -4.70674 -7.195 -7.6901 0.6618 -3.9096 57.7239 -14.4056 -8.86325 -3.2119 -3.55271e-15 -8.88178e-16 75.4266 -14.2018 -18.3035 -1.924 1.42109e-14 7.10543e-15 71.1307 -12.7786 -19.3061 8.7379 -0.0029 0.0005 -0.518213 -1.25218 14.2103 -1.77636e-15 -46.6676 0 1.78711 16.1405 -2.68644 0 -40.1476 -2.22045e-15 0.211504 -9.68374 7.89934 0 -8.8846 14.2294 0.0001 -2.48481e-17 3.18055e-15 -8.7379 0.0029 -0.0005 -7.48575 -3.09953 -24.0672 0 -46.6676 -3.55271e-15 -3.21877 17.4851 6.85327 0 -40.1476 -1.77636e-15 3.94785 -7.84137 -7.84724 -3.55271e-15 -8.8846 14.2294 -1.49089e-16 0 -3.18055e-15 
-0.00309818 96.4278 0.341285 1.24607 -5.09313 1.70704 2.22045e-16 7.2397 0 -1.13495 1.22118 -1.39694 1.38778e-17 16.546 0 -2.11039 4.32641 -2.63675 0 34.2149 0 2.75021 25.8287 1.53209 -8.88178e-16 6.2923 1.42109e-14 -0.979019 -18.6352 -2.06591 4.0639 26.6115 -1.1234 2.97177 -4.40794 0.92308 14.1772 0 0 -83.4269 22.281 12.3136 26.1234 0 7.10543e-15 -0.502587 -1.37966 -18.4099 27.7188 0 0 -1.9139 -27.4166 6.4519 2.2979 -0.4685 1.8313 82.8892 74.9023 -95.8207 5.2953 0 -1.77636e-15 -13.6745 2.44209 4.23974 3.0181 0 0 38.9448 3.9248 4.92958 9.3793 0.2991 2.5924 -7.76319 -1.73306 2.95023 4.3461 -3.55271e-15 0 -9.97002 0.0966158 2.06274 2.1666 -3.55271e-15 4.44089e-16 -12.1372 -0.251861 2.00677 9.4769 0.8376 0.2947 -7.1691 -4.4798 3.1779 4.772 3.55271e-15 -4.44089e-16 -31.7063 -2.13892 7.83815 2.8722 -7.10543e-15 -1.77636e-15 -19.9452 -0.781314 6.46371 8.6586 1.0176 -1.7016 -15.3501 1.72677 4.48127 4.5461 3.55271e-15 0 -36.0201 -1.51235 4.64918 2.506 -7.10543e-15 0 -23.0984 -0.578571 4.02876 7.6901 0.6618 -3.9096 -12.965 -9.45163 4.3314 3.2119 0 -1.33227e-15 -35.3497 -3.7093 11.6047 1.924 -7.10543e-15 -3.55271e-15 -25.0459 -1.82356 9.99356 -4.0677 26.6109 -1.1234 5.2335 -4.33033 1.7658 -14.1772 -2.84217e-14 0 74.598 3.74393 -12.1667 -26.1234 0 0 0.315391 -1.00604 13.1893 -27.7188 -7.10543e-15 -8.88178e-16 -11.624 -9.72208 3.50003 -2.2979 -0.4684 1.8313 -84.581 74.4253 115.749 -5.2953 0 3.55271e-15 15.3004 2.21205 -5.46139 -3.0181 1.77636e-15 0 -10.6114 3.2941 -16.0189 -9.3793 0.2991 2.5924 58.8722 -7.07581 -8.64881 -4.3461 -3.55271e-15 0 78.8288 -8.3887 -10.5305 -2.1666 0 0 81.0281 -8.82224 -9.93211 -9.4769 0.8376 0.2947 58.4456 -9.84026 -8.71158 -4.772 -3.55271e-15 0 77.7398 -10.7396 -13.4126 -2.8722 -1.42109e-14 0 73.8658 -9.75406 -14.4177 -8.6586 1.0176 -1.7016 59.4604 -3.212 -8.59604 -4.5461 7.10543e-15 0 79.8423 -5.51923 -6.59367 -2.506 0 0 73.1039 -4.70674 -7.195 -7.6901 0.6618 -3.9096 57.7239 -14.4056 -8.86325 -3.2119 0 8.88178e-16 75.4266 -14.2018 -18.3035 -1.924 -1.42109e-14 0 71.1307 -12.7786 -19.3061 8.7379 -0.0029 0.0005 -0.352623 -1.44431 14.1838 0 -46.6676 -1.77636e-15 1.82737 16.4732 -2.6906 1.77636e-15 -40.1476 1.33227e-15 0.169172 -9.87824 7.8839 1.77636e-15 -8.8846 14.2294 0.0001 -7.45443e-17 -6.36111e-15 -8.7379 0.0029 -0.0005 -7.31579 -3.10766 -24.0651 0 -46.6676 -3.55271e-15 -3.1941 17.4255 6.82939 3.55271e-15 -40.1476 1.77636e-15 3.91537 -7.82602 -7.84565 0 -8.8846 14.2294 3.72721e-17 4.96962e-17 -0 
-0.0331414 96.4224 0.363674 1.10979 -5.0526 1.71196 2.22045e-16 7.2397 0 -1.07587 1.21249 -1.40074 2.77556e-17 16.546 0 -2.04171 4.30829 -2.64496 -8.88178e-16 34.2149 0 2.74641 25.8054 1.53334 8.88178e-16 6.2923 0 -0.989945 -18.6785 -2.087 4.0639 26.6115 -1.1234 2.99508 -4.45728 0.899635 14.1772 5.68434e-14 1.77636e-15 -83.4915 22.3048 12.3526 26.1234 -7.10543e-15 0 -0.498238 -1.37197 -18.2997 27.7188 -7.10543e-15 5.55112e-16 -1.95655 -27.3746 6.30724 2.2979 -0.4685 1.8313 82.8859 74.9132 -95.8124 5.2953 0 0 -13.6843 2.4393 4.24379 3.0181 1.77636e-15 -3.55271e-15 38.9329 3.92556 4.93434 9.3793 0.2991 2.5924 -7.77032 -1.73343 2.95149 4.3461 0 0 -9.97724 0.0963576 2.06421 2.1666 3.55271e-15 0 -12.1443 -0.252164 2.00819 9.4769 0.8376 0.2947 -7.17619 -4.48015 3.17918 4.772 0 4.44089e-16 -31.7133 -2.13989 7.83971 2.8722 -3.55271e-15 1.77636e-15 -19.9523 -0.78194 6.46543 8.6586 1.0176 -1.7016 -15.3574 1.72624 4.48248 4.5461 0 0 -36.0273 -1.51294 4.64998 2.506 0 -1.77636e-15 -23.1056 -0.578965 4.02968 7.6901 0.6618 -3.9096 -12.972 -9.45211 4.33265 3.2119 -1.77636e-15 0 -35.3564 -3.71069 11.6066 1.924 -7.10543e-15 0 -25.0527 -1.82458 9.99573 -4.0677 26.6109 -1.1234 5.20558 -4.38194 1.79688 -14.1772 2.84217e-14 0 74.6517 3.77093 -12.1752 -26.1234 0 3.55271e-15 0.317907 -1.01169 13.2665 -27.7188 7.10543e-15 8.88178e-16 -11.6057 -9.86156 3.42435 -2.2979 -0.4684 1.8313 -84.581 74.4253 115.749 -5.2953 1.42109e-14 -3.55271e-15 15.3004 2.21205 -5.46139 -3.0181 0 3.55271e-15 -10.6114 3.2941 -16.0189 -9.3793 0.2991 2.5924 58.8722 -7.07581 -8.64881 -4.3461 -3.55271e-15 0 78.8288 -8.3887 -10.5305 -2.1666 0 0 81.0281 -8.82224 -9.93211 -9.4769 0.8376 0.2947 58.4456 -9.84026 -8.71158 -4.772 0 -4.44089e-16 77.7398 -10.7396 -13.4126 -2.8722 0 0 73.8658 -9.75406 -14.4177 -8.6586 1.0176 -1.7016 59.4604 -3.212 -8.59604 -4.5461 -7.10543e-15 0 79.8423 -5.51923 -6.59367 -2.506 0 -8.88178e-16 73.1039 -4.70674 -7.195 -7.6901 0.6618 -3.9096 57.7239 -14.4056 -8.86325 -3.2119 0 8.88178e-16 75.4266 -14.2018 -18.3035 -1.924 1.42109e-14 0 71.1307 -12.7786 -19.3061 8.7379 -0.0029 0.0005 -0.180775 -1.62891 14.1573 0 -46.6676 0 1.87077 16.8099 -2.67543 -1.77636e-15 -40.1476 0 0.122009 -10.0809 7.86717 1.77636e-15 -8.8846 14.2294 0.0001 0 3.18055e-15 -8.7379 0.0029 -0.0005 -7.14788 -3.1199 -24.0595 0 -46.6676 -3.55271e-15 -3.17703 17.3774 6.79076 -1.77636e-15 -40.1476 0 3.88996 -7.8149 -7.84193 -3.55271e-15 -8.8846 14.2294 -3.72721e-17 0 -3.18055e-15 
